<?xml version="1.0" ?>
<!-- Uploaded to: SVG Repo, www.svgrepo.com, Generator: SVG Repo Mixer Tools -->
<svg width="800px" height="800px" viewBox="0 0 24 24" version="1.1" xmlns="http://www.w3.org/2000/svg" xmlns:xlink="http://www.w3.org/1999/xlink">
<title/>
<g fill="none" fill-rule="evenodd" id="页面-1" stroke="none" stroke-width="1">
<g id="导航图标" stroke="#212121" stroke-width="1.5" transform="translate(-175.000000, -142.000000)">
<g id="人脉" transform="translate(175.000000, 142.000000)">
<g id="编组" transform="translate(4.000000, 3.000000)">
<path d="M14.5,6 C13.1193,6 12,4.8807 12,3.5 C12,2.11929 13.1193,1 14.5,1 C15.8807,1 17,2.11929 17,3.5 C17,4.8807 15.8807,6 14.5,6 Z" id="路径"/>
<path d="M2,4 C0.89543,4 0,3.10455 0,2 C0,0.89543 0.89543,0 2,0 C3.10455,0 4,0.89543 4,2 C4,3.10455 3.10455,4 2,4 Z" id="路径"/>
<path d="M9,17.5 L12,15 L12,12 C12,10.26695 13,9 14.5,9 C16,9 17,10.26695 17,12 L17,14.4186 L17,19" id="路径" stroke-linecap="round" stroke-linejoin="round"/>
<path d="M8,14.5 L5,12 L5,10 C5,8.26695 4,7 2.5,7 C1,7 0,8.26695 0,10 L0,11.4186 L0,19" id="路径" stroke-linecap="round" stroke-linejoin="round"/>
</g>
</g>
</g>
</g>
</svg>